<svg width="450" height="89" viewBox="0 0 450 89" fill="none" xmlns="http://www.w3.org/2000/svg">
<path d="M59.3195 50.5583C57.7781 48.1471 55.7308 46.0998 53.3195 44.5583V44.5583C44.6295 38.6383 31.9195 37.4183 24.5295 33.8583C20.9295 32.1283 18.5795 29.8583 18.5795 26.1983C18.5795 20.2583 22.7995 17.5583 29.7695 17.5583C38.5595 17.5583 43.0695 21.5584 43.7695 29.0884L61.0695 24.7283C59.5095 10.5583 48.9995 0.55835 29.7195 0.55835C11.6995 0.55835 0.069519 11.0783 0.069519 26.1983C0.069519 31.7083 1.39952 35.8583 3.57952 39.0583C5.09379 41.2499 7.02778 43.1194 9.26952 44.5583C18.2695 50.6983 31.6695 51.7783 38.8995 55.6783C42.0695 57.3483 44.0095 59.5583 44.0095 62.8983C44.0095 68.8383 39.7895 71.5783 32.8095 71.5783C24.2295 71.5783 19.7395 67.7483 18.8895 60.6583L1.55952 64.9783C3.33952 78.8583 13.8295 88.5583 32.8095 88.5583C50.8095 88.5583 62.4695 78.0384 62.4695 62.9184C62.6366 58.5804 61.5425 54.2871 59.3195 50.5583Z" fill="#111111"/>
<path d="M150.98 87.0084H211.74V70.0284H168.18V53.0684H211.74V36.0884H150.98V87.0084Z" fill="#111111"/>
<path d="M72.8995 19.0784H94.6495V87.0084H111.899V19.0784H133.659V2.09839H72.8995V19.0784Z" fill="#111111"/>
<path d="M307.02 19.0784H343.88L307.03 70.0084H307.02V86.9884H366.36V70.0084H329.52L366.36 19.0784V2.09839H307.02V19.0784Z" fill="#111111"/>
<path d="M229.029 87.0084H289.789V70.0284H246.229V53.0684H289.789V36.0884H229.029V87.0084Z" fill="#111111"/>
<path d="M289.79 2.1283H150.98V19.1083H289.79V2.1283Z" fill="#111111"/>
<path d="M428.53 2.09839L412.96 36.0884L397.38 2.09839H376.81L404.33 53.1784V87.0084H421.58V54.4784L449.1 2.09839H428.53Z" fill="#111111"/>
</svg>
